<svg xmlns="http://www.w3.org/2000/svg" width="13036.2484" height="2094.04188" viewBox="0 0 13036.2484 2094.04188">
  <g>
    <rect x="1269.3774" width="685.20778" height="2094.04188" fill="#fff"/>
    <circle cx="515.08143" cy="1047.01982" r="515.07974" transform="translate(-589.49095 670.88258) rotate(-45)" fill="#fff"/>
    <circle cx="2708.88115" cy="1047.01982" r="515.07974" transform="translate(53.05811 2222.13323) rotate(-45)" fill="#fff"/>
  </g>
  <g>
    <path d="M3865.94132,1860.792V565.69115H4102.5378V741.87734l41.92056-59.577c65.95722-93.72784,169.51547-147.48544,284.12027-147.48544,129.3065,0,246.81425,52.76667,330.87608,148.58,82.2534,93.75487,127.55212,221.26869,127.55212,359.05659,0,138.36895-45.48114,266.62146-128.06559,361.142-83.62944,95.7142-199.24092,148.42682-325.53636,148.42682-112.79862,0-217.57976-52.98738-280.2872-141.73808l-45.6613-64.63073,9.55341,199.108V1860.792ZM4375.51018,760.795c-70.57177,0-136.511,29.27277-185.66978,82.42681-48.83225,52.7982-75.72456,123.55463-75.72456,199.22965,0,78.94507,27.86972,151.28248,78.47888,203.69332,49.1453,50.89743,114.79172,78.92705,184.8455,78.92705,126.3585,0,262.35824-88.43991,262.35824-282.62037,0-83.05289-26.85628-154.25074-77.66362-205.90037C4514.07505,787.69854,4447.798,760.795,4375.51018,760.795Z" fill="#fff"/>
    <rect x="5093.42068" y="205.77426" width="251.06846" height="1313.43746" fill="#fff"/>
    <path d="M5990.02845,1552.02029c-121.18993,0-232.3873-52.609-313.107-148.13855-80.02382-94.70075-124.09289-223.06136-124.09289-361.43031,0-285.20127,191.19417-508.60495,435.26987-508.60495,139.04232,0,251.04143,54.27107,307.27859,148.89525l42.88672,72.15724V565.69115H6573.894v953.52056H6337.29982V1332.60732l-42.83717,71.396C6238.02506,1498.069,6127.0619,1552.02029,5990.02845,1552.02029ZM6063.36129,760.795c-71.83069,0-137.65953,26.93059-185.36574,75.82816-50.36818,51.62711-76.99249,122.80243-76.99249,205.8283,0,85.97612,27.17607,158.37209,78.587,209.3551,47.01256,46.62294,111.93381,72.30137,182.80735,72.30137,72.30363,0,139.08511-28.998,188.039-81.65659,48.54849-52.21716,75.28316-123.24835,75.28316-199.99988,0-75.37323-26.93736-145.99905-75.84618-198.87382C6200.48933,790.19386,6134.2506,760.795,6063.36129,760.795Z" fill="#fff"/>
    <path d="M7267.108,1551.05189c-285.00083,0-499.91861-218.65176-499.91861-508.60046,0-136.84652,49.48311-264.15766,139.33735-358.48005,92.22118-96.80872,220.28-150.1249,360.58126-150.1249,235.89157,0,422.89008,141.48584,483.86565,362.99777H7494.66909c-39.74053-86.65175-119.5932-134.117-226.59716-134.117-165.90535,0-252.71024,140.72013-252.71024,279.72416,0,184.91082,127.12871,281.65647,252.71024,281.65647,111.62077,0,190.01407-52.61353,227.70519-152.45357h256.06813C7695.78375,1403.116,7508.3078,1551.05189,7267.108,1551.05189Z" fill="#fff"/>
    <polygon points="9890.229 1519.212 9718.475 966.317 9682.662 966.317 9508.012 1519.212 9276.235 1519.212 8961.463 565.691 9230.614 565.691 9383.964 1099.61 9403.728 1177.442 9442.658 1177.442 9466.077 1099.772 9614.797 565.691 9795.74 565.691 9938.779 1097.65 9960.875 1177.442 9999.057 1177.442 10025.636 1095.259 10180.95 565.691 10443.448 565.691 10128.676 1519.212 9890.229 1519.212" fill="#fff"/>
    <rect x="10605.45245" y="565.69115" width="251.06846" height="953.52056" fill="#fff"/>
    <path d="M11483.42186,1552.02029c-135.03134,0-245.59136-36.94793-319.72595-106.85308-57.77984-54.47826-91.86761-127.55436-97.38525-207.73808l240.49261,1.635c9.27414,49.38853,45.22214,125.57252,178.54638,125.57252,57.26186,0,153.32738-14.77827,153.32738-113.76251,0-84.90863-91.17846-103.99291-192.75712-117.42443-228.80422-27.77288-344.69722-128.50475-344.69722-299.41652,0-190.77077,135.43671-300.18673,371.58277-300.18673,227.43044,0,383.32972,116.89743,395.8604,293.36738l-246.60031-1.644c-13.68375-61.53635-67.59-97.57893-148.29168-97.57893-61.52734,0-127.27511,26.0793-127.27511,99.28151,0,80.1567,51.88835,94.8539,200.18,116.4245,251.7486,36.26779,349.81849,117.52351,349.81849,289.80906,0,103.38034-39.44326,183.992-117.23525,239.59177C11707.02373,1524.72936,11604.72439,1552.02029,11483.42186,1552.02029Z" fill="#fff"/>
    <ellipse cx="10730.90335" cy="268.01325" rx="129.38757" ry="119.87471" fill="#fff"/>
    <path d="M8403.36838,1551.05189c-287.75064,0-504.7426-218.65176-504.7426-508.60046,0-137.63475,49.7984-265.1711,140.22016-359.11515,92.78422-96.39883,222.23935-149.4898,364.52244-149.4898,142.988,0,266.28365,51.14516,356.55677,147.89982,85.60452,91.7505,132.7477,217.11132,132.7477,352.98944a493.36935,493.36935,0,0,1-3.21374,58.95094H8145.1405l4.92309,27.17382c25.02532,138.14373,117.555,220.61559,247.5169,220.61559,111.7086,0,164.63517-48.63633,189.69878-94.61067h273.77637C8806.46252,1398.4767,8646.36983,1551.05189,8403.36838,1551.05189Zm.96615-819.2009c-116.3817,0-206.844,66.25675-241.98575,177.23116l-9.50836,30.025H8637.3772l-2.65072-25.44872C8623.93217,810.01233,8524.88487,731.851,8404.33453,731.851Z" fill="#fff"/>
    <path d="M12546.94393,1551.05189c-287.75065,0-504.74486-218.65176-504.74486-508.60046,0-137.63475,49.7984-265.1711,140.22016-359.11515,92.78647-96.39883,222.24161-149.4898,364.5247-149.4898,142.99024,0,266.28364,51.14516,356.55676,147.89982,85.60227,91.7505,132.74771,217.11132,132.74771,352.98944a493.53709,493.53709,0,0,1-3.2115,58.95094h-744.32311l4.92308,27.17382c25.02983,138.14373,117.55956,220.61559,247.51916,220.61559,111.7086,0,164.63742-48.63633,189.69878-94.61067h273.77412C12950.03806,1398.4767,12789.94537,1551.05189,12546.94393,1551.05189Zm.96389-819.2009c-116.37945,0-206.83724,66.25675-241.98349,177.23116l-9.50837,30.025h484.53453l-2.653-25.44872C12767.50546,810.01233,12668.45816,731.851,12547.90782,731.851Z" fill="#fff"/>
  </g>
</svg>
